<svg width="50" height="50" viewBox="0 0 50 50" fill="none" xmlns="http://www.w3.org/2000/svg">
<circle cx="25" cy="25" r="25" fill="#CFF80B"/>
<path d="M27.8001 23.6V19.4C27.8001 17.86 26.5401 16.6 25.0001 16.6C23.4601 16.6 22.2001 17.86 22.2001 19.4H19.4001C19.4001 16.306 21.9061 13.8 25.0001 13.8C28.0941 13.8 30.6001 16.306 30.6001 19.4V23.6H32.0001C32.7701 23.6 33.4001 24.23 33.4001 25V34.8C33.4001 35.57 32.7701 36.2 32.0001 36.2H18.0001C17.2301 36.2 16.6001 35.57 16.6001 34.8V25C16.6001 24.23 17.2301 23.6 18.0001 23.6H27.8001ZM26.4001 33.4L25.8961 30.39C26.6101 30.054 27.1001 29.34 27.1001 28.5C27.1001 27.338 26.1621 26.4 25.0001 26.4C23.8381 26.4 22.9001 27.338 22.9001 28.5C22.9001 29.34 23.3901 30.054 24.1041 30.39L23.6001 33.4H26.4001Z" fill="black"/>
</svg>
