<svg width="10" height="12" viewBox="0 0 10 12" fill="none" xmlns="http://www.w3.org/2000/svg">
<path d="M1.39392 0.78182C1.71409 0.630591 2.0703 0.572343 2.42197 0.613715C2.77363 0.655087 3.1066 0.794415 3.38293 1.01582L7.97293 4.80482L8.09893 4.93982V1.50182C8.09893 1.26313 8.19375 1.03421 8.36253 0.865424C8.53131 0.696642 8.76023 0.60182 8.99893 0.60182C9.23762 0.60182 9.46654 0.696642 9.63532 0.865424C9.8041 1.03421 9.89893 1.26313 9.89893 1.50182V10.5018C9.89893 10.7405 9.8041 10.9694 9.63532 11.1382C9.46654 11.307 9.23762 11.4018 8.99893 11.4018C8.76023 11.4018 8.53131 11.307 8.36253 11.1382C8.19375 10.9694 8.09893 10.7405 8.09893 10.5018V7.06382L7.97293 7.19882L3.38293 10.9878C3.05207 11.2561 2.6389 11.4023 2.21293 11.4018C1.9303 11.4002 1.6512 11.3388 1.39392 11.2218C1.11567 11.0992 0.878598 10.899 0.711026 10.6453C0.543454 10.3915 0.452465 10.0949 0.448925 9.79082V2.21282C0.452465 1.90875 0.543454 1.61213 0.711026 1.35838C0.878598 1.10463 1.11567 0.904472 1.39392 0.78182Z" fill="white"/>
</svg>
