<svg width="22" height="22" viewBox="0 0 22 22" fill="none" xmlns="http://www.w3.org/2000/svg">
<path d="M15.2057 5.78182C14.8855 5.63059 14.5293 5.57234 14.1776 5.61372C13.826 5.65509 13.493 5.79441 13.2167 6.01582L8.62668 9.80482L8.50068 9.93982V6.50182C8.50068 6.26313 8.40586 6.03421 8.23708 5.86542C8.0683 5.69664 7.83938 5.60182 7.60068 5.60182C7.36199 5.60182 7.13307 5.69664 6.96429 5.86542C6.7955 6.03421 6.70068 6.26313 6.70068 6.50182V15.5018C6.70068 15.7405 6.7955 15.9694 6.96429 16.1382C7.13307 16.307 7.36199 16.4018 7.60068 16.4018C7.83938 16.4018 8.0683 16.307 8.23708 16.1382C8.40586 15.9694 8.50068 15.7405 8.50068 15.5018V12.0638L8.62668 12.1988L13.2167 15.9878C13.5475 16.2561 13.9607 16.4023 14.3867 16.4018C14.6693 16.4002 14.9484 16.3388 15.2057 16.2218C15.4839 16.0992 15.721 15.899 15.8886 15.6453C16.0562 15.3915 16.1471 15.0949 16.1507 14.7908V7.21282C16.1471 6.90875 16.0562 6.61213 15.8886 6.35838C15.721 6.10463 15.4839 5.90447 15.2057 5.78182Z" fill="white"/>
</svg>
