<svg width="127" height="102" viewBox="0 0 127 102" fill="none" xmlns="http://www.w3.org/2000/svg">
<path d="M5.25025 40.1021C2.06564 47.7259 0.285805 55.9998 0.250542 64.2534H16.5907C16.6233 58.2104 17.8389 52.231 20.1701 46.6501C22.5334 40.9924 25.9968 35.856 30.3607 31.5366C34.7247 27.2172 39.9031 23.8001 45.598 21.4818C51.2929 19.1634 57.3918 17.9897 63.5439 18.0281C69.6959 18.0665 75.7796 19.3162 81.4449 21.7054C87.1101 24.0946 92.2452 27.5762 96.5545 31.9497C100.864 36.3232 104.262 41.5024 106.554 47.1892C108.815 52.7987 109.955 58.7928 109.912 64.8357L126.748 65.0458C126.819 56.7926 125.267 48.6044 122.179 40.9434C119.061 33.205 114.436 26.1573 108.572 20.2058C102.708 14.2543 95.72 9.5165 88.0104 6.26512C80.3007 3.01375 72.0216 1.31299 63.6494 1.26074C55.2932 1.2086 46.7867 3.52565 39.2514 6.2394C30.7556 10.5104 25.2408 13.7171 18.7449 19.6887C12.8113 25.5627 8.46743 32.4003 5.25025 40.1021Z" stroke="#87888C" stroke-opacity="0.4" stroke-width="0.5"/>
<path d="M99.3872 65.0036C99.3872 55.1915 95.4738 45.7813 88.5078 38.8431C81.5418 31.905 72.0938 28.0071 62.2424 28.0071C52.391 28.0071 42.9431 31.905 35.9771 38.8431C29.0111 45.7813 25.0977 55.1915 25.0977 65.0036L62.2424 65.0036H99.3872Z" fill="url(#paint0_linear_1_173)"/>
<path d="M19.0742 65.0036C19.0742 53.5341 23.8997 42.0344 32.0424 33.9242C40.1851 25.8141 51.2289 21.2578 62.7444 21.2578C74.2599 21.2578 85.3038 25.8141 93.4465 33.9242C101.395 41.8411 106.917 53.5341 106.917 65.0036" stroke="#313131" stroke-width="0.5"/>
<g filter="url(#filter0_f_1_173)">
<path d="M43.9959 48.0847C41.211 50.6982 35.7455 58.9408 36.1633 71.003H104.909L103.905 57.0044C102.86 48.1587 94.9371 35.8492 82.8226 31.5068L74.2893 43.5057C72.7228 42.5005 68.956 40.7266 64.3609 40.2443C60.0094 39.8422 49.8443 40.8474 43.9959 48.0847Z" fill="#111111"/>
</g>
<path d="M21.082 65.0036C21.082 53.3199 25.9114 43.7629 33.6309 35.5064C41.3499 27.2506 52.0922 23.0076 63 23.0076C73.9079 23.0076 84.373 27.642 92.092 35.8978C99.8115 44.1543 104.407 53.3199 104.407 65.0036" stroke="#313131" stroke-width="0.5"/>
<path d="M126.995 65.0036H104.407" stroke="#404142" stroke-width="0.5"/>
<path d="M25.0977 65.0036H17.0664" stroke="#404142" stroke-width="0.5"/>
<path d="M58.2266 1.00977L59.7323 28.0068" stroke="#313131" stroke-opacity="0.72" stroke-width="0.5"/>
<path d="M13.5527 25.0074L33.631 41.5059" stroke="#313131" stroke-opacity="0.72" stroke-width="0.5"/>
<defs>
<filter id="filter0_f_1_173" x="29.1406" y="24.5068" width="82.7681" height="53.4962" filterUnits="userSpaceOnUse" color-interpolation-filters="sRGB">
<feFlood flood-opacity="0" result="BackgroundImageFix"/>
<feBlend mode="normal" in="SourceGraphic" in2="BackgroundImageFix" result="shape"/>
<feGaussianBlur stdDeviation="3.5" result="effect1_foregroundBlur_1_173"/>
</filter>
<linearGradient id="paint0_linear_1_173" x1="25.0977" y1="65.0036" x2="85.7018" y2="27.7912" gradientUnits="userSpaceOnUse">
<stop stop-color="#6709eb"/>
<stop offset="0.0001" stop-color="#6709eb"/>
<stop offset="0.267361" stop-color="#6709eb" stop-opacity="0.73"/>
<stop offset="1" stop-color="#D9D9D9" stop-opacity="0"/>
</linearGradient>
</defs>
</svg>
