<svg width="18" height="18" viewBox="0 0 18 18" fill="none" xmlns="http://www.w3.org/2000/svg">
<path d="M11.8125 15.75H0.5625C0.253125 15.75 0 16.0031 0 16.3125V17.4375C0 17.7469 0.253125 18 0.5625 18H11.8125C12.1219 18 12.375 17.7469 12.375 17.4375V16.3125C12.375 16.0031 12.1219 15.75 11.8125 15.75ZM17.3391 3.77227L14.4914 0.924609C14.2734 0.706641 13.9148 0.706641 13.6969 0.924609L13.2996 1.32187C13.0816 1.53984 13.0816 1.89844 13.2996 2.11641L14.625 3.4418V5.625C14.625 6.61289 15.3598 7.42852 16.3125 7.56562V13.2188C16.3125 13.6828 15.9328 14.0625 15.4688 14.0625C15.0047 14.0625 14.625 13.6828 14.625 13.2188V12.0938C14.625 10.3852 13.2398 9 11.5312 9H11.25V2.25C11.25 1.00898 10.241 0 9 0H3.375C2.13398 0 1.125 1.00898 1.125 2.25V14.625H11.25V10.6875H11.5312C12.3082 10.6875 12.9375 11.3168 12.9375 12.0938V13.0711C12.9375 14.3965 13.8867 15.6023 15.2051 15.7395C16.7168 15.8906 18 14.7023 18 13.2188V5.36484C18 4.76719 17.7609 4.19414 17.3391 3.77227V3.77227ZM9 6.75H3.375V2.25H9V6.75Z" fill="white"/>
</svg>
