<svg width="127" height="65" viewBox="0 0 127 65" fill="none" xmlns="http://www.w3.org/2000/svg">
<mask id="path-1-inside-1_246_3" fill="white">
<path d="M0.010613 63.3208C0.316046 46.354 7.19195 30.1929 19.1481 18.3404C31.1042 6.48781 47.1772 -0.10129 63.8834 0.00117583C80.5897 0.103641 96.5832 6.88942 108.397 18.8878C120.212 30.8861 126.895 47.1303 126.999 64.0997L110.432 64.2041C110.356 51.662 105.416 39.6557 96.6841 30.7877C87.952 21.9196 76.1311 16.9042 63.7834 16.8285C51.4357 16.7527 39.556 21.6228 30.7192 30.3831C21.8823 39.1434 16.8003 51.0881 16.5745 63.6284L0.010613 63.3208Z"/>
</mask>
<path d="M0.010613 63.3208C0.316046 46.354 7.19195 30.1929 19.1481 18.3404C31.1042 6.48781 47.1772 -0.10129 63.8834 0.00117583C80.5897 0.103641 96.5832 6.88942 108.397 18.8878C120.212 30.8861 126.895 47.1303 126.999 64.0997L110.432 64.2041C110.356 51.662 105.416 39.6557 96.6841 30.7877C87.952 21.9196 76.1311 16.9042 63.7834 16.8285C51.4357 16.7527 39.556 21.6228 30.7192 30.3831C21.8823 39.1434 16.8003 51.0881 16.5745 63.6284L0.010613 63.3208Z" stroke="#CFF80B" stroke-width="124" mask="url(#path-1-inside-1_246_3)"/>
</svg>
