<svg width="50" height="50" viewBox="0 0 50 50" fill="none" xmlns="http://www.w3.org/2000/svg">
<circle cx="25" cy="25" r="25" fill="#606060"/>
<path d="M32.1104 22.3208H30.7104V18.1208C30.7104 15.0408 28.1904 12.5208 25.1104 12.5208C22.0304 12.5208 19.5104 15.0408 19.5104 18.1208V22.3208H18.1104C17.4104 22.3208 16.7104 23.0208 16.7104 23.7208V33.5208C16.7104 34.2208 17.4104 34.9208 18.1104 34.9208H32.1104C32.8104 34.9208 33.5104 34.2208 33.5104 33.5208V23.7208C33.5104 23.0208 32.8104 22.3208 32.1104 22.3208ZM26.5104 32.1208H23.7104L24.2704 29.0408C23.5704 28.7608 23.0104 27.9208 23.0104 27.2208C23.0104 26.1008 23.9904 25.1208 25.1104 25.1208C26.2304 25.1208 27.2104 26.1008 27.2104 27.2208C27.2104 28.0608 26.7904 28.7608 25.9504 29.0408L26.5104 32.1208ZM27.9104 22.3208H22.3104V18.1208C22.3104 16.5808 23.5704 15.3208 25.1104 15.3208C26.6504 15.3208 27.9104 16.5808 27.9104 18.1208V22.3208Z" fill="white"/>
</svg>
