<svg width="12" height="13" viewBox="0 0 12 13" fill="none" xmlns="http://www.w3.org/2000/svg">
<path d="M6 0C9.30695 0 12 2.76353 12 6.16357C12 9.55647 9.30695 12.32 6 12.32C2.69305 12.32 0 9.55647 0 6.16357C0 2.76353 2.69305 0 6 0ZM5.3166 3.71442C5.18919 3.71442 5.06757 3.74414 4.95174 3.80357C4.80695 3.88677 4.69112 4.01752 4.62741 4.17204C4.58687 4.27902 4.52317 4.59994 4.52317 4.60589C4.45946 4.95653 4.42471 5.52706 4.42471 6.15703C4.42471 6.75787 4.45946 7.30404 4.51158 7.66063C4.51737 7.66657 4.58108 8.06476 4.65058 8.20145C4.77799 8.45106 5.02703 8.60558 5.29344 8.60558H5.3166C5.49035 8.59963 5.85521 8.44511 5.85521 8.43917C6.46911 8.17768 7.67954 7.36347 8.16602 6.82265L8.20077 6.78699C8.26448 6.72162 8.34556 6.62059 8.36293 6.59682C8.4556 6.47201 8.50193 6.31749 8.50193 6.16357C8.50193 5.99062 8.44981 5.83016 8.35135 5.69941C8.32819 5.67564 8.24131 5.57461 8.16023 5.4914C7.68533 4.96841 6.44595 4.11261 5.7973 3.85111C5.69884 3.81011 5.44981 3.72037 5.3166 3.71442Z" fill="white"/>
</svg>
