<svg width="18" height="18" viewBox="0 0 18 18" fill="none" xmlns="http://www.w3.org/2000/svg">
<path d="M13.2155 13.2407C13.5054 12.9528 13.9701 12.9528 14.26 13.2407L16.176 14.7873H16.2093C16.5969 15.1791 16.5969 15.8143 16.2093 16.2061C15.8216 16.5979 15.1932 16.5979 14.8055 16.2061L13.2155 14.3839L13.1552 14.3158C13.0428 14.1735 12.9807 13.9961 12.9807 13.8123C12.9807 13.5978 13.0652 13.3921 13.2155 13.2407ZM7.93323 1.5C9.63943 1.5 11.2757 2.18508 12.4822 3.40452C13.6887 4.62397 14.3665 6.27789 14.3665 8.00244C14.3665 11.5936 11.4862 14.5049 7.93323 14.5049C4.38026 14.5049 1.5 11.5936 1.5 8.00244C1.5 4.41124 4.38026 1.5 7.93323 1.5Z" fill="#ffffff"/>
</svg>
