<svg width="345" height="321" viewBox="0 0 345 321" fill="none" xmlns="http://www.w3.org/2000/svg">
<path d="M25.0625 259.086C24.3396 259.51 23.4086 259.268 22.9905 258.542C8.15705 232.767 0.234724 203.586 0.00513482 173.831C-0.22836 143.57 7.5031 113.78 22.4233 87.4518C37.3435 61.1235 58.9275 39.1836 85.0081 23.8348C111.089 8.4859 140.748 0.268197 171.009 0.00668517C201.27 -0.254827 231.067 7.44905 257.409 22.3449C283.752 37.2407 305.711 58.8043 321.084 84.8708C336.457 110.937 344.703 140.589 344.992 170.85C345.277 200.604 337.86 229.917 323.474 255.945C323.069 256.679 322.142 256.937 321.412 256.525V256.525C320.682 256.113 320.425 255.187 320.83 254.453C334.954 228.889 342.236 200.101 341.956 170.879C341.672 141.151 333.572 112.021 318.469 86.413C303.367 60.8053 281.794 39.6212 255.915 24.9876C230.037 10.3539 200.764 2.7856 171.036 3.04251C141.307 3.29942 112.17 11.3725 86.548 26.4512C60.9263 41.53 39.7222 63.0837 25.0646 88.9486C10.407 114.813 2.81159 144.079 3.04098 173.808C3.26646 203.03 11.0447 231.689 25.6084 257.004C26.0265 257.731 25.7854 258.661 25.0625 259.086V259.086Z" fill="#D9D9D9" fill-opacity="0.16"/>
<circle cx="173" cy="173" r="63" stroke="#87888C" stroke-opacity="0.15" stroke-width="4"/>
<path d="M310.423 250.741L282.576 234.602" stroke="#87888C" stroke-opacity="0.2" stroke-width="2.41451" stroke-linecap="round"/>
<path d="M323.807 220.702L314.956 217.781" stroke="#87888C" stroke-opacity="0.2" stroke-width="2.41451" stroke-linecap="round"/>
<path d="M317.363 236.122L309.079 231.957" stroke="#87888C" stroke-opacity="0.2" stroke-width="2.41451" stroke-linecap="round"/>
<path d="M332 188.635L322.604 188.191" stroke="#87888C" stroke-opacity="0.2" stroke-width="2.41451" stroke-linecap="round"/>
<path d="M329.082 205.277L319.068 202.994" stroke="#87888C" stroke-opacity="0.2" stroke-width="2.41451" stroke-linecap="round"/>
<path d="M224.55 22.215L221.184 31.5267" stroke="#87888C" stroke-opacity="0.2" stroke-width="2.41451" stroke-linecap="round"/>
<path d="M239.805 27.7535L235.265 37.0868" stroke="#87888C" stroke-opacity="0.2" stroke-width="2.41451" stroke-linecap="round"/>
<path d="M253.726 35.6569L237.185 64.327" stroke="#87888C" stroke-opacity="0.2" stroke-width="2.41451" stroke-linecap="round"/>
<path d="M267.977 44.3843L261.657 52.5169" stroke="#87888C" stroke-opacity="0.2" stroke-width="2.41451" stroke-linecap="round"/>
<path d="M280.308 55.4883L274.555 62.3772" stroke="#87888C" stroke-opacity="0.2" stroke-width="2.41451" stroke-linecap="round"/>
<path d="M292.624 66.5757L285.707 74.1026" stroke="#87888C" stroke-opacity="0.2" stroke-width="2.41451" stroke-linecap="round"/>
<path d="M303.195 79.5127L295.084 85.8281" stroke="#87888C" stroke-opacity="0.2" stroke-width="2.41451" stroke-linecap="round"/>
<path d="M311.32 92.9012L284.025 110.052" stroke="#87888C" stroke-opacity="0.2" stroke-width="2.41451" stroke-linecap="round"/>
<path d="M319.638 107.87L310.911 112.346" stroke="#87888C" stroke-opacity="0.2" stroke-width="2.41451" stroke-linecap="round"/>
<path d="M325.515 123.279L316.181 126.533" stroke="#87888C" stroke-opacity="0.2" stroke-width="2.41451" stroke-linecap="round"/>
<path d="M328.464 139.931L319.686 141.325" stroke="#87888C" stroke-opacity="0.2" stroke-width="2.41451" stroke-linecap="round"/>
<path d="M331.403 155.962L322.614 156.74" stroke="#87888C" stroke-opacity="0.2" stroke-width="2.41451" stroke-linecap="round"/>
<path d="M207.541 17.9152L205.924 26.5782" stroke="#87888C" stroke-opacity="0.2" stroke-width="2.41451" stroke-linecap="round"/>
<path d="M109.55 26.6008L113.82 36.3892" stroke="#87888C" stroke-opacity="0.2" stroke-width="2.41451" stroke-linecap="round"/>
<path d="M124.799 20.429L128.493 30.8445" stroke="#87888C" stroke-opacity="0.2" stroke-width="2.41451" stroke-linecap="round"/>
<path d="M141.227 16.7141L143.161 27.162" stroke="#87888C" stroke-opacity="0.2" stroke-width="2.41451" stroke-linecap="round"/>
<path d="M158.242 14.2322L158.416 24.7124" stroke="#87888C" stroke-opacity="0.2" stroke-width="2.41451" stroke-linecap="round"/>
<path d="M174.48 13.0002L175.035 46.2904" stroke="#87888C" stroke-opacity="0.2" stroke-width="2.41451" stroke-linecap="round"/>
<path d="M191.098 14.2322L191.272 24.7124" stroke="#87888C" stroke-opacity="0.2" stroke-width="2.41451" stroke-linecap="round"/>
<path d="M43.8594 76.5857L52.7816 83.822" stroke="#87888C" stroke-opacity="0.2" stroke-width="2.41451" stroke-linecap="round"/>
<path d="M55.0117 64.8655L63.3371 71.4961" stroke="#87888C" stroke-opacity="0.2" stroke-width="2.41451" stroke-linecap="round"/>
<path d="M67.3276 53.1404L74.49 60.409" stroke="#87888C" stroke-opacity="0.2" stroke-width="2.41451" stroke-linecap="round"/>
<path d="M80.23 42.6472L86.2293 50.5538" stroke="#87888C" stroke-opacity="0.2" stroke-width="2.41451" stroke-linecap="round"/>
<path d="M94.1431 34.1189L111.626 62.1649" stroke="#87888C" stroke-opacity="0.2" stroke-width="2.41451" stroke-linecap="round"/>
<path d="M15.1821 186.341L24.5476 184.935" stroke="#87888C" stroke-opacity="0.2" stroke-width="2.41451" stroke-linecap="round"/>
<path d="M14 172.981L45.6775 172.407" stroke="#87888C" stroke-opacity="0.2" stroke-width="2.41451" stroke-linecap="round"/>
<path d="M26.3554 233.827L36.8429 229.318" stroke="#87888C" stroke-opacity="0.2" stroke-width="2.41451" stroke-linecap="round"/>
<path d="M21.059 218.408L30.9906 215.759" stroke="#87888C" stroke-opacity="0.2" stroke-width="2.41451" stroke-linecap="round"/>
<path d="M17.5341 202.372L26.8894 200.35" stroke="#87888C" stroke-opacity="0.2" stroke-width="2.41451" stroke-linecap="round"/>
<path d="M35.8307 248.154L61.983 232.874" stroke="#87888C" stroke-opacity="0.2" stroke-width="2.41451" stroke-linecap="round"/>
<path d="M14.585 153.668L24.5575 153.485" stroke="#87888C" stroke-opacity="0.2" stroke-width="2.41451" stroke-linecap="round"/>
<path d="M16.9062 136.404L26.93 139.304" stroke="#87888C" stroke-opacity="0.2" stroke-width="2.41451" stroke-linecap="round"/>
<path d="M21.5947 120.985L31.0421 124.511" stroke="#87888C" stroke-opacity="0.2" stroke-width="2.41451" stroke-linecap="round"/>
<path d="M28.0386 105.565L36.9198 110.335" stroke="#87888C" stroke-opacity="0.2" stroke-width="2.41451" stroke-linecap="round"/>
<path d="M35.5698 90.9456L64.0042 107.074" stroke="#87888C" stroke-opacity="0.2" stroke-width="2.41451" stroke-linecap="round"/>
<path d="M331.993 174.244L299.729 174.836" stroke="#87888C" stroke-opacity="0.2" stroke-width="2.41451" stroke-linecap="round"/>
<path d="M73.968 227.52C74.992 226.635 75.7973 225.91 76.384 225.344C76.9813 224.768 77.4773 224.171 77.872 223.552C78.2667 222.934 78.464 222.315 78.464 221.696C78.464 221.056 78.3093 220.555 78 220.192C77.7013 219.83 77.2267 219.648 76.576 219.648C75.9467 219.648 75.456 219.851 75.104 220.256C74.7627 220.651 74.5813 221.184 74.56 221.856H72.8C72.832 220.64 73.1947 219.712 73.888 219.072C74.592 218.422 75.4827 218.096 76.56 218.096C77.7227 218.096 78.6293 218.416 79.28 219.056C79.9413 219.696 80.272 220.55 80.272 221.616C80.272 222.384 80.0747 223.126 79.68 223.84C79.296 224.544 78.832 225.179 78.288 225.744C77.7547 226.299 77.072 226.944 76.24 227.68L75.52 228.32H80.592V229.84H72.816V228.512L73.968 227.52ZM82.1944 224.016C82.1944 222.171 82.5037 220.731 83.1224 219.696C83.7517 218.651 84.829 218.128 86.3544 218.128C87.8797 218.128 88.9517 218.651 89.5704 219.696C90.1997 220.731 90.5144 222.171 90.5144 224.016C90.5144 225.883 90.1997 227.344 89.5704 228.4C88.9517 229.446 87.8797 229.968 86.3544 229.968C84.829 229.968 83.7517 229.446 83.1224 228.4C82.5037 227.344 82.1944 225.883 82.1944 224.016ZM88.7224 224.016C88.7224 223.152 88.6637 222.422 88.5464 221.824C88.4397 221.227 88.2157 220.742 87.8744 220.368C87.533 219.984 87.0264 219.792 86.3544 219.792C85.6824 219.792 85.1757 219.984 84.8344 220.368C84.493 220.742 84.2637 221.227 84.1464 221.824C84.0397 222.422 83.9864 223.152 83.9864 224.016C83.9864 224.912 84.0397 225.664 84.1464 226.272C84.253 226.88 84.477 227.371 84.8184 227.744C85.1704 228.118 85.6824 228.304 86.3544 228.304C87.0264 228.304 87.533 228.118 87.8744 227.744C88.2264 227.371 88.4557 226.88 88.5624 226.272C88.669 225.664 88.7224 224.912 88.7224 224.016Z" fill="white"/>
<path d="M57.736 176.568V175.192L63.112 167.48H65.32V174.984H66.808V176.568H65.32V179H63.528V176.568H57.736ZM63.608 169.336L59.832 174.984H63.608V169.336ZM68.3194 173.016C68.3194 171.171 68.6287 169.731 69.2474 168.696C69.8767 167.651 70.954 167.128 72.4794 167.128C74.0047 167.128 75.0767 167.651 75.6954 168.696C76.3247 169.731 76.6394 171.171 76.6394 173.016C76.6394 174.883 76.3247 176.344 75.6954 177.4C75.0767 178.446 74.0047 178.968 72.4794 178.968C70.954 178.968 69.8767 178.446 69.2474 177.4C68.6287 176.344 68.3194 174.883 68.3194 173.016ZM74.8474 173.016C74.8474 172.152 74.7887 171.422 74.6714 170.824C74.5647 170.227 74.3407 169.742 73.9994 169.368C73.658 168.984 73.1514 168.792 72.4794 168.792C71.8074 168.792 71.3007 168.984 70.9594 169.368C70.618 169.742 70.3887 170.227 70.2714 170.824C70.1647 171.422 70.1114 172.152 70.1114 173.016C70.1114 173.912 70.1647 174.664 70.2714 175.272C70.378 175.88 70.602 176.371 70.9434 176.744C71.2954 177.118 71.8074 177.304 72.4794 177.304C73.1514 177.304 73.658 177.118 73.9994 176.744C74.3514 176.371 74.5807 175.88 74.6874 175.272C74.794 174.664 74.8474 173.912 74.8474 173.016Z" fill="white"/>
<path d="M80.232 110.04C80.1147 109.55 79.9013 109.182 79.592 108.936C79.2827 108.691 78.8507 108.568 78.296 108.568C77.4533 108.568 76.824 108.894 76.408 109.544C75.992 110.184 75.7733 111.251 75.752 112.744C76.0293 112.275 76.4347 111.912 76.968 111.656C77.5013 111.4 78.0773 111.272 78.696 111.272C79.4 111.272 80.0187 111.427 80.552 111.736C81.096 112.035 81.5173 112.472 81.816 113.048C82.1253 113.624 82.28 114.312 82.28 115.112C82.28 115.859 82.1307 116.526 81.832 117.112C81.544 117.699 81.112 118.163 80.536 118.504C79.96 118.835 79.2667 119 78.456 119C77.3573 119 76.4933 118.76 75.864 118.28C75.2453 117.79 74.808 117.102 74.552 116.216C74.3067 115.331 74.184 114.227 74.184 112.904C74.184 109 75.56 107.048 78.312 107.048C79.3787 107.048 80.216 107.336 80.824 107.912C81.4427 108.488 81.8053 109.198 81.912 110.04H80.232ZM78.296 112.808C77.6453 112.808 77.0907 113.006 76.632 113.4C76.184 113.784 75.96 114.344 75.96 115.08C75.96 115.816 76.168 116.403 76.584 116.84C77.0107 117.267 77.6027 117.48 78.36 117.48C79.032 117.48 79.56 117.272 79.944 116.856C80.3387 116.44 80.536 115.886 80.536 115.192C80.536 114.467 80.344 113.891 79.96 113.464C79.5867 113.027 79.032 112.808 78.296 112.808ZM84.2256 113.016C84.2256 111.171 84.535 109.731 85.1536 108.696C85.783 107.651 86.8603 107.128 88.3856 107.128C89.911 107.128 90.983 107.651 91.6016 108.696C92.231 109.731 92.5456 111.171 92.5456 113.016C92.5456 114.883 92.231 116.344 91.6016 117.4C90.983 118.446 89.911 118.968 88.3856 118.968C86.8603 118.968 85.783 118.446 85.1536 117.4C84.535 116.344 84.2256 114.883 84.2256 113.016ZM90.7536 113.016C90.7536 112.152 90.695 111.422 90.5776 110.824C90.471 110.227 90.247 109.742 89.9056 109.368C89.5643 108.984 89.0576 108.792 88.3856 108.792C87.7136 108.792 87.207 108.984 86.8656 109.368C86.5243 109.742 86.295 110.227 86.1776 110.824C86.071 111.422 86.0176 112.152 86.0176 113.016C86.0176 113.912 86.071 114.664 86.1776 115.272C86.2843 115.88 86.5083 116.371 86.8496 116.744C87.2016 117.118 87.7136 117.304 88.3856 117.304C89.0576 117.304 89.5643 117.118 89.9056 116.744C90.2576 116.371 90.487 115.88 90.5936 115.272C90.7003 114.664 90.7536 113.912 90.7536 113.016Z" fill="white"/>
<path d="M117.928 75.9042C116.819 75.3496 116.264 74.4749 116.264 73.2802C116.264 72.7042 116.408 72.1762 116.696 71.6962C116.984 71.2162 117.416 70.8376 117.992 70.5602C118.568 70.2722 119.272 70.1282 120.104 70.1282C120.925 70.1282 121.624 70.2722 122.2 70.5602C122.787 70.8376 123.224 71.2162 123.512 71.6962C123.8 72.1762 123.944 72.7042 123.944 73.2802C123.944 73.8776 123.789 74.4056 123.48 74.8642C123.181 75.3122 122.781 75.6589 122.28 75.9042C122.888 76.1282 123.368 76.4962 123.72 77.0082C124.072 77.5096 124.248 78.1016 124.248 78.7842C124.248 79.4776 124.072 80.0909 123.72 80.6242C123.368 81.1576 122.877 81.5682 122.248 81.8562C121.619 82.1442 120.904 82.2882 120.104 82.2882C119.304 82.2882 118.589 82.1442 117.96 81.8562C117.341 81.5682 116.856 81.1576 116.504 80.6242C116.152 80.0909 115.976 79.4776 115.976 78.7842C115.976 78.0909 116.152 77.4936 116.504 76.9922C116.856 76.4909 117.331 76.1282 117.928 75.9042ZM122.2 73.5042C122.2 72.9069 122.013 72.4482 121.64 72.1282C121.267 71.8082 120.755 71.6482 120.104 71.6482C119.464 71.6482 118.957 71.8082 118.584 72.1282C118.211 72.4482 118.024 72.9122 118.024 73.5202C118.024 74.0536 118.216 74.4909 118.6 74.8322C118.995 75.1629 119.496 75.3282 120.104 75.3282C120.712 75.3282 121.213 75.1576 121.608 74.8162C122.003 74.4749 122.2 74.0376 122.2 73.5042ZM120.104 76.7042C119.4 76.7042 118.824 76.8802 118.376 77.2322C117.939 77.5736 117.72 78.0696 117.72 78.7202C117.72 79.3282 117.933 79.8242 118.36 80.2082C118.787 80.5816 119.368 80.7682 120.104 80.7682C120.829 80.7682 121.4 80.5762 121.816 80.1922C122.243 79.8082 122.456 79.3176 122.456 78.7202C122.456 78.0802 122.237 77.5842 121.8 77.2322C121.373 76.8802 120.808 76.7042 120.104 76.7042ZM126.163 76.0162C126.163 74.1709 126.472 72.7309 127.091 71.6962C127.72 70.6509 128.798 70.1282 130.323 70.1282C131.848 70.1282 132.92 70.6509 133.539 71.6962C134.168 72.7309 134.483 74.1709 134.483 76.0162C134.483 77.8829 134.168 79.3442 133.539 80.4002C132.92 81.4456 131.848 81.9682 130.323 81.9682C128.798 81.9682 127.72 81.4456 127.091 80.4002C126.472 79.3442 126.163 77.8829 126.163 76.0162ZM132.691 76.0162C132.691 75.1522 132.632 74.4216 132.515 73.8242C132.408 73.2269 132.184 72.7416 131.843 72.3682C131.502 71.9842 130.995 71.7922 130.323 71.7922C129.651 71.7922 129.144 71.9842 128.803 72.3682C128.462 72.7416 128.232 73.2269 128.115 73.8242C128.008 74.4216 127.955 75.1522 127.955 76.0162C127.955 76.9122 128.008 77.6642 128.115 78.2722C128.222 78.8802 128.446 79.3709 128.787 79.7442C129.139 80.1176 129.651 80.3042 130.323 80.3042C130.995 80.3042 131.502 80.1176 131.843 79.7442C132.195 79.3709 132.424 78.8802 132.531 78.2722C132.638 77.6642 132.691 76.9122 132.691 76.0162Z" fill="white"/>
<path d="M161.72 60.0002V58.3362H165.048V70.0002H163.208V60.0002H161.72ZM167.554 64.0162C167.554 62.1709 167.863 60.7309 168.482 59.6962C169.111 58.6509 170.188 58.1282 171.714 58.1282C173.239 58.1282 174.311 58.6509 174.93 59.6962C175.559 60.7309 175.874 62.1709 175.874 64.0162C175.874 65.8829 175.559 67.3442 174.93 68.4002C174.311 69.4456 173.239 69.9682 171.714 69.9682C170.188 69.9682 169.111 69.4456 168.482 68.4002C167.863 67.3442 167.554 65.8829 167.554 64.0162ZM174.082 64.0162C174.082 63.1522 174.023 62.4216 173.906 61.8242C173.799 61.2269 173.575 60.7416 173.234 60.3682C172.892 59.9842 172.386 59.7922 171.714 59.7922C171.042 59.7922 170.535 59.9842 170.194 60.3682C169.852 60.7416 169.623 61.2269 169.506 61.8242C169.399 62.4216 169.346 63.1522 169.346 64.0162C169.346 64.9122 169.399 65.6642 169.506 66.2722C169.612 66.8802 169.836 67.3709 170.178 67.7442C170.53 68.1176 171.042 68.3042 171.714 68.3042C172.386 68.3042 172.892 68.1176 173.234 67.7442C173.586 67.3709 173.815 66.8802 173.922 66.2722C174.028 65.6642 174.082 64.9122 174.082 64.0162ZM177.804 64.0162C177.804 62.1709 178.113 60.7309 178.732 59.6962C179.361 58.6509 180.438 58.1282 181.964 58.1282C183.489 58.1282 184.561 58.6509 185.18 59.6962C185.809 60.7309 186.124 62.1709 186.124 64.0162C186.124 65.8829 185.809 67.3442 185.18 68.4002C184.561 69.4456 183.489 69.9682 181.964 69.9682C180.438 69.9682 179.361 69.4456 178.732 68.4002C178.113 67.3442 177.804 65.8829 177.804 64.0162ZM184.332 64.0162C184.332 63.1522 184.273 62.4216 184.156 61.8242C184.049 61.2269 183.825 60.7416 183.484 60.3682C183.142 59.9842 182.636 59.7922 181.964 59.7922C181.292 59.7922 180.785 59.9842 180.444 60.3682C180.102 60.7416 179.873 61.2269 179.756 61.8242C179.649 62.4216 179.596 63.1522 179.596 64.0162C179.596 64.9122 179.649 65.6642 179.756 66.2722C179.862 66.8802 180.086 67.3709 180.428 67.7442C180.78 68.1176 181.292 68.3042 181.964 68.3042C182.636 68.3042 183.142 68.1176 183.484 67.7442C183.836 67.3709 184.065 66.8802 184.172 66.2722C184.278 65.6642 184.332 64.9122 184.332 64.0162Z" fill="white"/>
<path d="M217.72 73.0002V71.3362H221.048V83.0002H219.208V73.0002H217.72ZM224.562 80.5202C225.586 79.6349 226.391 78.9096 226.978 78.3442C227.575 77.7682 228.071 77.1709 228.466 76.5522C228.86 75.9336 229.058 75.3149 229.058 74.6962C229.058 74.0562 228.903 73.5549 228.594 73.1922C228.295 72.8296 227.82 72.6482 227.17 72.6482C226.54 72.6482 226.05 72.8509 225.698 73.2562C225.356 73.6509 225.175 74.1842 225.154 74.8562H223.394C223.426 73.6402 223.788 72.7122 224.482 72.0722C225.186 71.4216 226.076 71.0962 227.154 71.0962C228.316 71.0962 229.223 71.4162 229.874 72.0562C230.535 72.6962 230.866 73.5496 230.866 74.6162C230.866 75.3842 230.668 76.1256 230.274 76.8402C229.89 77.5442 229.426 78.1789 228.882 78.7442C228.348 79.2989 227.666 79.9442 226.834 80.6802L226.114 81.3202H231.186V82.8402H223.41V81.5122L224.562 80.5202ZM232.788 77.0162C232.788 75.1709 233.097 73.7309 233.716 72.6962C234.345 71.6509 235.423 71.1282 236.948 71.1282C238.473 71.1282 239.545 71.6509 240.164 72.6962C240.793 73.7309 241.108 75.1709 241.108 77.0162C241.108 78.8829 240.793 80.3442 240.164 81.4002C239.545 82.4456 238.473 82.9682 236.948 82.9682C235.423 82.9682 234.345 82.4456 233.716 81.4002C233.097 80.3442 232.788 78.8829 232.788 77.0162ZM239.316 77.0162C239.316 76.1522 239.257 75.4216 239.14 74.8242C239.033 74.2269 238.809 73.7416 238.468 73.3682C238.127 72.9842 237.62 72.7922 236.948 72.7922C236.276 72.7922 235.769 72.9842 235.428 73.3682C235.087 73.7416 234.857 74.2269 234.74 74.8242C234.633 75.4216 234.58 76.1522 234.58 77.0162C234.58 77.9122 234.633 78.6642 234.74 79.2722C234.847 79.8802 235.071 80.3709 235.412 80.7442C235.764 81.1176 236.276 81.3042 236.948 81.3042C237.62 81.3042 238.127 81.1176 238.468 80.7442C238.82 80.3709 239.049 79.8802 239.156 79.2722C239.263 78.6642 239.316 77.9122 239.316 77.0162Z" fill="white"/>
<path d="M252.72 115V113.336H256.048V125H254.208V115H252.72ZM258.33 122.568V121.192L263.706 113.48H265.914V120.984H267.402V122.568H265.914V125H264.122V122.568H258.33ZM264.202 115.336L260.426 120.984H264.202V115.336ZM268.913 119.016C268.913 117.171 269.222 115.731 269.841 114.696C270.47 113.651 271.548 113.128 273.073 113.128C274.598 113.128 275.67 113.651 276.289 114.696C276.918 115.731 277.233 117.171 277.233 119.016C277.233 120.883 276.918 122.344 276.289 123.4C275.67 124.446 274.598 124.968 273.073 124.968C271.548 124.968 270.47 124.446 269.841 123.4C269.222 122.344 268.913 120.883 268.913 119.016ZM275.441 119.016C275.441 118.152 275.382 117.422 275.265 116.824C275.158 116.227 274.934 115.742 274.593 115.368C274.252 114.984 273.745 114.792 273.073 114.792C272.401 114.792 271.894 114.984 271.553 115.368C271.212 115.742 270.982 116.227 270.865 116.824C270.758 117.422 270.705 118.152 270.705 119.016C270.705 119.912 270.758 120.664 270.865 121.272C270.972 121.88 271.196 122.371 271.537 122.744C271.889 123.118 272.401 123.304 273.073 123.304C273.745 123.304 274.252 123.118 274.593 122.744C274.945 122.371 275.174 121.88 275.281 121.272C275.388 120.664 275.441 119.912 275.441 119.016Z" fill="white"/>
<path d="M262.72 169V167.336H266.048V179H264.208V169H262.72ZM274.826 170.04C274.708 169.55 274.495 169.182 274.186 168.936C273.876 168.691 273.444 168.568 272.89 168.568C272.047 168.568 271.418 168.894 271.002 169.544C270.586 170.184 270.367 171.251 270.346 172.744C270.623 172.275 271.028 171.912 271.562 171.656C272.095 171.4 272.671 171.272 273.29 171.272C273.994 171.272 274.612 171.427 275.146 171.736C275.69 172.035 276.111 172.472 276.41 173.048C276.719 173.624 276.874 174.312 276.874 175.112C276.874 175.859 276.724 176.526 276.426 177.112C276.138 177.699 275.706 178.163 275.13 178.504C274.554 178.835 273.86 179 273.05 179C271.951 179 271.087 178.76 270.458 178.28C269.839 177.79 269.402 177.102 269.146 176.216C268.9 175.331 268.778 174.227 268.778 172.904C268.778 169 270.154 167.048 272.906 167.048C273.972 167.048 274.81 167.336 275.418 167.912C276.036 168.488 276.399 169.198 276.506 170.04H274.826ZM272.89 172.808C272.239 172.808 271.684 173.006 271.226 173.4C270.778 173.784 270.554 174.344 270.554 175.08C270.554 175.816 270.762 176.403 271.178 176.84C271.604 177.267 272.196 177.48 272.954 177.48C273.626 177.48 274.154 177.272 274.538 176.856C274.932 176.44 275.13 175.886 275.13 175.192C275.13 174.467 274.938 173.891 274.554 173.464C274.18 173.027 273.626 172.808 272.89 172.808ZM278.819 173.016C278.819 171.171 279.129 169.731 279.747 168.696C280.377 167.651 281.454 167.128 282.979 167.128C284.505 167.128 285.577 167.651 286.195 168.696C286.825 169.731 287.139 171.171 287.139 173.016C287.139 174.883 286.825 176.344 286.195 177.4C285.577 178.446 284.505 178.968 282.979 178.968C281.454 178.968 280.377 178.446 279.747 177.4C279.129 176.344 278.819 174.883 278.819 173.016ZM285.347 173.016C285.347 172.152 285.289 171.422 285.171 170.824C285.065 170.227 284.841 169.742 284.499 169.368C284.158 168.984 283.651 168.792 282.979 168.792C282.307 168.792 281.801 168.984 281.459 169.368C281.118 169.742 280.889 170.227 280.771 170.824C280.665 171.422 280.611 172.152 280.611 173.016C280.611 173.912 280.665 174.664 280.771 175.272C280.878 175.88 281.102 176.371 281.443 176.744C281.795 177.118 282.307 177.304 282.979 177.304C283.651 177.304 284.158 177.118 284.499 176.744C284.851 176.371 285.081 175.88 285.187 175.272C285.294 174.664 285.347 173.912 285.347 173.016Z" fill="white"/>
<path d="M248.72 221V219.336H252.048V231H250.208V221H248.72ZM256.522 224.904C255.412 224.35 254.858 223.475 254.858 222.28C254.858 221.704 255.002 221.176 255.29 220.696C255.578 220.216 256.01 219.838 256.586 219.56C257.162 219.272 257.866 219.128 258.698 219.128C259.519 219.128 260.218 219.272 260.794 219.56C261.38 219.838 261.818 220.216 262.106 220.696C262.394 221.176 262.538 221.704 262.538 222.28C262.538 222.878 262.383 223.406 262.074 223.864C261.775 224.312 261.375 224.659 260.874 224.904C261.482 225.128 261.962 225.496 262.314 226.008C262.666 226.51 262.842 227.102 262.842 227.784C262.842 228.478 262.666 229.091 262.314 229.624C261.962 230.158 261.471 230.568 260.842 230.856C260.212 231.144 259.498 231.288 258.698 231.288C257.898 231.288 257.183 231.144 256.554 230.856C255.935 230.568 255.45 230.158 255.098 229.624C254.746 229.091 254.57 228.478 254.57 227.784C254.57 227.091 254.746 226.494 255.098 225.992C255.45 225.491 255.924 225.128 256.522 224.904ZM260.794 222.504C260.794 221.907 260.607 221.448 260.234 221.128C259.86 220.808 259.348 220.648 258.698 220.648C258.058 220.648 257.551 220.808 257.178 221.128C256.804 221.448 256.618 221.912 256.618 222.52C256.618 223.054 256.81 223.491 257.194 223.832C257.588 224.163 258.09 224.328 258.698 224.328C259.306 224.328 259.807 224.158 260.202 223.816C260.596 223.475 260.794 223.038 260.794 222.504ZM258.698 225.704C257.994 225.704 257.418 225.88 256.97 226.232C256.532 226.574 256.314 227.07 256.314 227.72C256.314 228.328 256.527 228.824 256.954 229.208C257.38 229.582 257.962 229.768 258.698 229.768C259.423 229.768 259.994 229.576 260.41 229.192C260.836 228.808 261.05 228.318 261.05 227.72C261.05 227.08 260.831 226.584 260.394 226.232C259.967 225.88 259.402 225.704 258.698 225.704ZM264.757 225.016C264.757 223.171 265.066 221.731 265.685 220.696C266.314 219.651 267.392 219.128 268.917 219.128C270.442 219.128 271.514 219.651 272.133 220.696C272.762 221.731 273.077 223.171 273.077 225.016C273.077 226.883 272.762 228.344 272.133 229.4C271.514 230.446 270.442 230.968 268.917 230.968C267.392 230.968 266.314 230.446 265.685 229.4C265.066 228.344 264.757 226.883 264.757 225.016ZM271.285 225.016C271.285 224.152 271.226 223.422 271.109 222.824C271.002 222.227 270.778 221.742 270.437 221.368C270.096 220.984 269.589 220.792 268.917 220.792C268.245 220.792 267.738 220.984 267.397 221.368C267.056 221.742 266.826 222.227 266.709 222.824C266.602 223.422 266.549 224.152 266.549 225.016C266.549 225.912 266.602 226.664 266.709 227.272C266.816 227.88 267.04 228.371 267.381 228.744C267.733 229.118 268.245 229.304 268.917 229.304C269.589 229.304 270.096 229.118 270.437 228.744C270.789 228.371 271.018 227.88 271.125 227.272C271.232 226.664 271.285 225.912 271.285 225.016Z" fill="white"/>
</svg>
