<svg width="345" height="321" viewBox="0 0 345 321" fill="none" xmlns="http://www.w3.org/2000/svg">
<path d="M25.0625 259.086C24.3396 259.51 23.4086 259.268 22.9905 258.542C8.15705 232.767 0.234724 203.586 0.00513482 173.831C-0.22836 143.57 7.5031 113.78 22.4233 87.4518C37.3435 61.1235 58.9275 39.1836 85.0081 23.8348C111.089 8.4859 140.748 0.268197 171.009 0.00668517C201.27 -0.254827 231.067 7.44905 257.409 22.3449C283.752 37.2407 305.711 58.8043 321.084 84.8708C336.457 110.937 344.703 140.589 344.992 170.85C345.277 200.604 337.86 229.917 323.474 255.945C323.069 256.679 322.142 256.937 321.412 256.525V256.525C320.682 256.113 320.425 255.187 320.83 254.453C334.954 228.889 342.236 200.101 341.956 170.879C341.672 141.151 333.572 112.021 318.469 86.413C303.367 60.8053 281.794 39.6212 255.915 24.9876C230.037 10.3539 200.764 2.7856 171.036 3.04251C141.307 3.29942 112.17 11.3725 86.548 26.4512C60.9263 41.53 39.7222 63.0837 25.0646 88.9486C10.407 114.813 2.81159 144.079 3.04098 173.808C3.26646 203.03 11.0447 231.689 25.6084 257.004C26.0265 257.731 25.7854 258.661 25.0625 259.086V259.086Z" fill="#D9D9D9" fill-opacity="0.16"/>
<circle cx="173" cy="173" r="63" stroke="#87888C" stroke-opacity="0.15" stroke-width="4"/>
<path d="M310.423 250.741L282.576 234.602" stroke="#87888C" stroke-opacity="0.2" stroke-width="2.41451" stroke-linecap="round"/>
<path d="M323.807 220.702L314.956 217.781" stroke="#87888C" stroke-opacity="0.2" stroke-width="2.41451" stroke-linecap="round"/>
<path d="M317.363 236.122L309.079 231.957" stroke="#87888C" stroke-opacity="0.2" stroke-width="2.41451" stroke-linecap="round"/>
<path d="M332 188.635L322.604 188.191" stroke="#87888C" stroke-opacity="0.2" stroke-width="2.41451" stroke-linecap="round"/>
<path d="M329.082 205.277L319.068 202.994" stroke="#87888C" stroke-opacity="0.2" stroke-width="2.41451" stroke-linecap="round"/>
<path d="M224.55 22.215L221.184 31.5267" stroke="#87888C" stroke-opacity="0.2" stroke-width="2.41451" stroke-linecap="round"/>
<path d="M239.805 27.7535L235.265 37.0868" stroke="#87888C" stroke-opacity="0.2" stroke-width="2.41451" stroke-linecap="round"/>
<path d="M253.726 35.6569L237.185 64.327" stroke="#87888C" stroke-opacity="0.2" stroke-width="2.41451" stroke-linecap="round"/>
<path d="M267.977 44.3843L261.657 52.5169" stroke="#87888C" stroke-opacity="0.2" stroke-width="2.41451" stroke-linecap="round"/>
<path d="M280.308 55.4883L274.555 62.3772" stroke="#87888C" stroke-opacity="0.2" stroke-width="2.41451" stroke-linecap="round"/>
<path d="M292.624 66.5757L285.707 74.1026" stroke="#87888C" stroke-opacity="0.2" stroke-width="2.41451" stroke-linecap="round"/>
<path d="M303.195 79.5127L295.084 85.8281" stroke="#87888C" stroke-opacity="0.2" stroke-width="2.41451" stroke-linecap="round"/>
<path d="M311.32 92.9012L284.025 110.052" stroke="#87888C" stroke-opacity="0.2" stroke-width="2.41451" stroke-linecap="round"/>
<path d="M319.638 107.87L310.911 112.346" stroke="#87888C" stroke-opacity="0.2" stroke-width="2.41451" stroke-linecap="round"/>
<path d="M325.515 123.279L316.181 126.533" stroke="#87888C" stroke-opacity="0.2" stroke-width="2.41451" stroke-linecap="round"/>
<path d="M328.464 139.931L319.686 141.325" stroke="#87888C" stroke-opacity="0.2" stroke-width="2.41451" stroke-linecap="round"/>
<path d="M331.403 155.962L322.614 156.74" stroke="#87888C" stroke-opacity="0.2" stroke-width="2.41451" stroke-linecap="round"/>
<path d="M207.541 17.9152L205.924 26.5782" stroke="#87888C" stroke-opacity="0.2" stroke-width="2.41451" stroke-linecap="round"/>
<path d="M109.55 26.6008L113.82 36.3892" stroke="#87888C" stroke-opacity="0.2" stroke-width="2.41451" stroke-linecap="round"/>
<path d="M124.799 20.429L128.493 30.8445" stroke="#87888C" stroke-opacity="0.2" stroke-width="2.41451" stroke-linecap="round"/>
<path d="M141.227 16.7141L143.161 27.162" stroke="#87888C" stroke-opacity="0.2" stroke-width="2.41451" stroke-linecap="round"/>
<path d="M158.242 14.2322L158.416 24.7124" stroke="#87888C" stroke-opacity="0.2" stroke-width="2.41451" stroke-linecap="round"/>
<path d="M174.48 13.0002L175.035 46.2904" stroke="#87888C" stroke-opacity="0.2" stroke-width="2.41451" stroke-linecap="round"/>
<path d="M191.098 14.2322L191.272 24.7124" stroke="#87888C" stroke-opacity="0.2" stroke-width="2.41451" stroke-linecap="round"/>
<path d="M43.8594 76.5857L52.7816 83.822" stroke="#87888C" stroke-opacity="0.2" stroke-width="2.41451" stroke-linecap="round"/>
<path d="M55.0117 64.8655L63.3371 71.4961" stroke="#87888C" stroke-opacity="0.2" stroke-width="2.41451" stroke-linecap="round"/>
<path d="M67.3276 53.1404L74.49 60.409" stroke="#87888C" stroke-opacity="0.2" stroke-width="2.41451" stroke-linecap="round"/>
<path d="M80.23 42.6472L86.2293 50.5538" stroke="#87888C" stroke-opacity="0.2" stroke-width="2.41451" stroke-linecap="round"/>
<path d="M94.1431 34.1189L111.626 62.1649" stroke="#87888C" stroke-opacity="0.2" stroke-width="2.41451" stroke-linecap="round"/>
<path d="M15.1821 186.341L24.5476 184.935" stroke="#87888C" stroke-opacity="0.2" stroke-width="2.41451" stroke-linecap="round"/>
<path d="M14 172.981L45.6775 172.407" stroke="#87888C" stroke-opacity="0.2" stroke-width="2.41451" stroke-linecap="round"/>
<path d="M26.3554 233.827L36.8429 229.318" stroke="#87888C" stroke-opacity="0.2" stroke-width="2.41451" stroke-linecap="round"/>
<path d="M21.059 218.408L30.9906 215.759" stroke="#87888C" stroke-opacity="0.2" stroke-width="2.41451" stroke-linecap="round"/>
<path d="M17.5341 202.372L26.8894 200.35" stroke="#87888C" stroke-opacity="0.2" stroke-width="2.41451" stroke-linecap="round"/>
<path d="M35.8307 248.154L61.983 232.874" stroke="#87888C" stroke-opacity="0.2" stroke-width="2.41451" stroke-linecap="round"/>
<path d="M14.585 153.668L24.5575 153.485" stroke="#87888C" stroke-opacity="0.2" stroke-width="2.41451" stroke-linecap="round"/>
<path d="M16.9062 136.404L26.93 139.304" stroke="#87888C" stroke-opacity="0.2" stroke-width="2.41451" stroke-linecap="round"/>
<path d="M21.5947 120.985L31.0421 124.511" stroke="#87888C" stroke-opacity="0.2" stroke-width="2.41451" stroke-linecap="round"/>
<path d="M28.0386 105.565L36.9198 110.335" stroke="#87888C" stroke-opacity="0.2" stroke-width="2.41451" stroke-linecap="round"/>
<path d="M35.5698 90.9456L64.0042 107.074" stroke="#87888C" stroke-opacity="0.2" stroke-width="2.41451" stroke-linecap="round"/>
<path d="M331.993 174.244L299.729 174.836" stroke="#87888C" stroke-opacity="0.2" stroke-width="2.41451" stroke-linecap="round"/>
</svg>
