<svg width="345" height="260" viewBox="0 0 345 260" fill="none" xmlns="http://www.w3.org/2000/svg">
<path d="M25.0625 259.086C24.3396 259.51 23.4086 259.268 22.9905 258.542C8.15705 232.767 0.234724 203.586 0.00513482 173.831C-0.22836 143.57 7.5031 113.78 22.4233 87.4518C37.3435 61.1235 58.9275 39.1836 85.0081 23.8348C111.089 8.4859 140.748 0.268197 171.009 0.00668517C201.27 -0.254827 231.067 7.44905 257.409 22.3449C283.752 37.2407 305.711 58.8043 321.084 84.8708C336.457 110.937 344.703 140.589 344.992 170.85C345.277 200.604 337.86 229.917 323.474 255.945C323.069 256.679 322.142 256.937 321.412 256.525V256.525C320.682 256.113 320.425 255.187 320.83 254.453C334.954 228.889 342.236 200.101 341.956 170.879C341.672 141.151 333.572 112.021 318.469 86.413C303.367 60.8053 281.794 39.6212 255.915 24.9876C230.037 10.3539 200.764 2.7856 171.036 3.04251C141.307 3.29942 112.17 11.3725 86.548 26.4512C60.9263 41.53 39.7222 63.0837 25.0646 88.9486C10.407 114.813 2.81159 144.079 3.04098 173.808C3.26646 203.03 11.0447 231.689 25.6084 257.004C26.0265 257.731 25.7854 258.661 25.0625 259.086V259.086Z" fill="#CFF80B"/>
</svg>
