<svg width="11" height="12" viewBox="0 0 11 12" fill="none" xmlns="http://www.w3.org/2000/svg">
<path d="M9.20569 0.78182C8.88552 0.630591 8.5293 0.572343 8.17764 0.613715C7.82598 0.655087 7.49301 0.794415 7.21668 1.01582L2.62668 4.80482L2.50068 4.93982V1.50182C2.50068 1.26313 2.40586 1.03421 2.23708 0.865424C2.0683 0.696642 1.83938 0.60182 1.60068 0.60182C1.36199 0.60182 1.13307 0.696642 0.964288 0.865424C0.795505 1.03421 0.700684 1.26313 0.700684 1.50182V10.5018C0.700684 10.7405 0.795505 10.9694 0.964288 11.1382C1.13307 11.307 1.36199 11.4018 1.60068 11.4018C1.83938 11.4018 2.0683 11.307 2.23708 11.1382C2.40586 10.9694 2.50068 10.7405 2.50068 10.5018V7.06382L2.62668 7.19882L7.21668 10.9878C7.54754 11.2561 7.9607 11.4023 8.38668 11.4018C8.66931 11.4002 8.9484 11.3388 9.20569 11.2218C9.48394 11.0992 9.72101 10.899 9.88858 10.6453C10.0562 10.3915 10.1471 10.0949 10.1507 9.79082V2.21282C10.1471 1.90875 10.0562 1.61213 9.88858 1.35838C9.72101 1.10463 9.48394 0.904472 9.20569 0.78182Z" fill="white"/>
</svg>
