<svg width="8" height="10" viewBox="0 0 8 10" fill="none" xmlns="http://www.w3.org/2000/svg">
<path d="M4.88551 0.723761L4.88551 8.84406C4.88551 9.21772 5.23021 9.52075 5.65525 9.52075H6.42498C6.85002 9.52075 7.19472 9.21772 7.19472 8.84406L7.19472 0.723761C7.19472 0.3501 6.85002 0.0470686 6.42498 0.0470686H5.65525C5.23021 0.0470686 4.88551 0.3501 4.88551 0.723761ZM0.26709 0.723761L0.26709 8.84406C0.26709 9.21772 0.611788 9.52075 1.03683 9.52075H1.80656C2.2316 9.52075 2.5763 9.21772 2.5763 8.84406L2.5763 0.723761C2.5763 0.3501 2.2316 0.0470686 1.80656 0.0470686H1.03683C0.611788 0.0470686 0.26709 0.3501 0.26709 0.723761Z" fill="white"/>
</svg>
