<svg width="19" height="24" viewBox="0 0 19 24" fill="none" xmlns="http://www.w3.org/2000/svg">
<path d="M8.97937 0.253965L0.666872 4.30884C0.258841 4.50788 0 4.92214 0 5.37613V15.6455C0 16.0081 0.165674 16.3508 0.449835 16.5761L8.76233 23.1653C9.19446 23.5078 9.80554 23.5078 10.2377 23.1653L18.5502 16.5761C18.8343 16.3508 19 16.0081 19 15.6455V5.37613C19 4.92214 18.7412 4.50788 18.3331 4.30884L10.0206 0.253965C9.69205 0.0936816 9.30795 0.0936819 8.97937 0.253965Z" fill="#FFCE22"/>
<path d="M10.625 7.435L10.401 14.197H8.749L8.511 7.435H10.625ZM9.617 17.473C9.26233 17.473 8.96833 17.3657 8.735 17.151C8.511 16.927 8.399 16.6517 8.399 16.325C8.399 15.9983 8.511 15.7277 8.735 15.513C8.96833 15.289 9.26233 15.177 9.617 15.177C9.96233 15.177 10.247 15.289 10.471 15.513C10.695 15.7277 10.807 15.9983 10.807 16.325C10.807 16.6517 10.695 16.927 10.471 17.151C10.247 17.3657 9.96233 17.473 9.617 17.473Z" fill="#1E1E1E"/>
</svg>
