<svg width="358" height="448" viewBox="0 0 358 448" fill="none" xmlns="http://www.w3.org/2000/svg">
<path d="M123.973 385.444L47 448H28L109 382.847L19.1397 342.806L0 362.87V342.806L11 333.776L0 330.766V319.731L19.1397 326.919V303.856L0 295.653V285.12L14.3548 288.13L79.1689 263.048L0 240.476V229.44L85.2588 194.829L0 167.742V157.709L101.354 189.813L165.733 164.23L0 113.567V93.5033L73.079 66.4155L0 43.3412V30.8014L92.6537 59.3928L217.497 5.72067C224.022 4.2149 237.942 -3.8101 260.561 2.20939L338.425 26.2869L358 19.7659V30.8014L205.317 93.5033C210.102 96.3457 224.37 103.134 243.162 107.548L358 63.4064V74.4419L327 88.9881L358 93.5033V105.04C346.255 104.204 316.332 100.024 304.5 100.024C270.86 113.902 198.46 137.248 191.5 141.261L180 197.337C231.329 197.839 342.688 199.645 358 202.855V213.389C313.196 214.058 213.06 213.79 180 207.37C174.49 224.926 166.429 262.848 169.213 274.085H358V285.12C304.061 284.618 185.616 281.508 171 285.12C150 298.667 121 317.694 134.5 336.144L202.272 371.899C208.072 371.063 222.804 369.391 235.332 369.391C259.401 370.896 317.633 378.019 358 394.472V405.508C321.896 392.633 243.684 370.596 219.672 385.444C230.692 390.125 256.124 400.693 269.696 405.508C286.661 408.852 328.072 415.541 358 415.541V425.573C329.29 425.573 264.563 421.56 235.332 405.508L196.182 385.444H123.973Z" fill="#2B2B2B"/>
<path d="M220.542 16.043L108.313 66.096L188.627 89.4911L326.68 32.8243C297.738 20.5207 234.462 9.23317 220.542 16.043Z" fill="#1E1E1E"/>
<path d="M87.9286 73.8011L9 104.956L176.637 153.369C176.637 142.972 176.637 132.575 191.851 126.563L230.5 113.585L87.9286 73.8011Z" fill="#1E1E1E"/>
<path d="M174 170.666L112 195.459C116.495 199.305 145.924 200.275 167.5 195.459L174 170.666Z" fill="#1E1E1E"/>
<path d="M100.919 200.349L16.5303 233.455L96.5692 255.526L163 230.63L170 206.414C153.5 210.45 112.5 212.756 100.919 200.349Z" fill="#1E1E1E"/>
<path d="M96.569 269.57L31.7549 296.155L111.359 319.731L148.768 281.608L96.569 269.57Z" fill="#1E1E1E"/>
<path d="M30.0146 305.687V335.568L58.7242 348.325C77 358.054 122.494 382.033 177.478 372.402C155.728 364.042 123.416 349.829 117.5 333.778L30.0146 305.687Z" fill="#1E1E1E"/>
<path d="M160.5 204.249L115 218.219L154 225.927L160.5 204.249Z" fill="#1E1E1E"/>
<ellipse cx="160.5" cy="262.5" rx="45.5" ry="34.5" fill="#6709eb" fill-opacity="0.12"/>
<ellipse cx="160" cy="262.5" rx="35" ry="26.5" fill="#6709eb"/>
<path d="M241.232 143L239.312 139.664H238.268V143H236.9V134.66H239.78C240.42 134.66 240.96 134.772 241.4 134.996C241.848 135.22 242.18 135.52 242.396 135.896C242.62 136.272 242.732 136.692 242.732 137.156C242.732 137.7 242.572 138.196 242.252 138.644C241.94 139.084 241.456 139.384 240.8 139.544L242.864 143H241.232ZM238.268 138.572H239.78C240.292 138.572 240.676 138.444 240.932 138.188C241.196 137.932 241.328 137.588 241.328 137.156C241.328 136.724 241.2 136.388 240.944 136.148C240.688 135.9 240.3 135.776 239.78 135.776H238.268V138.572ZM247.35 143.108C246.726 143.108 246.162 142.968 245.658 142.688C245.154 142.4 244.758 142 244.47 141.488C244.182 140.968 244.038 140.368 244.038 139.688C244.038 139.016 244.186 138.42 244.482 137.9C244.778 137.38 245.182 136.98 245.694 136.7C246.206 136.42 246.778 136.28 247.41 136.28C248.042 136.28 248.614 136.42 249.126 136.7C249.638 136.98 250.042 137.38 250.338 137.9C250.634 138.42 250.782 139.016 250.782 139.688C250.782 140.36 250.63 140.956 250.326 141.476C250.022 141.996 249.606 142.4 249.078 142.688C248.558 142.968 247.982 143.108 247.35 143.108ZM247.35 141.92C247.702 141.92 248.03 141.836 248.334 141.668C248.646 141.5 248.898 141.248 249.09 140.912C249.282 140.576 249.378 140.168 249.378 139.688C249.378 139.208 249.286 138.804 249.102 138.476C248.918 138.14 248.674 137.888 248.37 137.72C248.066 137.552 247.738 137.468 247.386 137.468C247.034 137.468 246.706 137.552 246.402 137.72C246.106 137.888 245.87 138.14 245.694 138.476C245.518 138.804 245.43 139.208 245.43 139.688C245.43 140.4 245.61 140.952 245.97 141.344C246.338 141.728 246.798 141.92 247.35 141.92ZM251.678 139.664C251.678 139 251.814 138.412 252.086 137.9C252.366 137.388 252.742 136.992 253.214 136.712C253.694 136.424 254.222 136.28 254.798 136.28C255.318 136.28 255.77 136.384 256.154 136.592C256.546 136.792 256.858 137.044 257.09 137.348V136.388H258.47V143H257.09V142.016C256.858 142.328 256.542 142.588 256.142 142.796C255.742 143.004 255.286 143.108 254.774 143.108C254.206 143.108 253.686 142.964 253.214 142.676C252.742 142.38 252.366 141.972 252.086 141.452C251.814 140.924 251.678 140.328 251.678 139.664ZM257.09 139.688C257.09 139.232 256.994 138.836 256.802 138.5C256.618 138.164 256.374 137.908 256.07 137.732C255.766 137.556 255.438 137.468 255.086 137.468C254.734 137.468 254.406 137.556 254.102 137.732C253.798 137.9 253.55 138.152 253.358 138.488C253.174 138.816 253.082 139.208 253.082 139.664C253.082 140.12 253.174 140.52 253.358 140.864C253.55 141.208 253.798 141.472 254.102 141.656C254.414 141.832 254.742 141.92 255.086 141.92C255.438 141.92 255.766 141.832 256.07 141.656C256.374 141.48 256.618 141.224 256.802 140.888C256.994 140.544 257.09 140.144 257.09 139.688ZM259.811 139.664C259.811 139 259.947 138.412 260.219 137.9C260.499 137.388 260.875 136.992 261.347 136.712C261.827 136.424 262.359 136.28 262.943 136.28C263.375 136.28 263.799 136.376 264.215 136.568C264.639 136.752 264.975 137 265.223 137.312V134.12H266.603V143H265.223V142.004C264.999 142.324 264.687 142.588 264.287 142.796C263.895 143.004 263.443 143.108 262.931 143.108C262.355 143.108 261.827 142.964 261.347 142.676C260.875 142.38 260.499 141.972 260.219 141.452C259.947 140.924 259.811 140.328 259.811 139.664ZM265.223 139.688C265.223 139.232 265.127 138.836 264.935 138.5C264.751 138.164 264.507 137.908 264.203 137.732C263.899 137.556 263.571 137.468 263.219 137.468C262.867 137.468 262.539 137.556 262.235 137.732C261.931 137.9 261.683 138.152 261.491 138.488C261.307 138.816 261.215 139.208 261.215 139.664C261.215 140.12 261.307 140.52 261.491 140.864C261.683 141.208 261.931 141.472 262.235 141.656C262.547 141.832 262.875 141.92 263.219 141.92C263.571 141.92 263.899 141.832 264.203 141.656C264.507 141.48 264.751 141.224 264.935 140.888C265.127 140.544 265.223 140.144 265.223 139.688Z" fill="#87888C"/>
<path d="M68.232 99L66.312 95.664H65.268V99H63.9V90.66H66.78C67.42 90.66 67.96 90.772 68.4 90.996C68.848 91.22 69.18 91.52 69.396 91.896C69.62 92.272 69.732 92.692 69.732 93.156C69.732 93.7 69.572 94.196 69.252 94.644C68.94 95.084 68.456 95.384 67.8 95.544L69.864 99H68.232ZM65.268 94.572H66.78C67.292 94.572 67.676 94.444 67.932 94.188C68.196 93.932 68.328 93.588 68.328 93.156C68.328 92.724 68.2 92.388 67.944 92.148C67.688 91.9 67.3 91.776 66.78 91.776H65.268V94.572ZM74.35 99.108C73.726 99.108 73.162 98.968 72.658 98.688C72.154 98.4 71.758 98 71.47 97.488C71.182 96.968 71.038 96.368 71.038 95.688C71.038 95.016 71.186 94.42 71.482 93.9C71.778 93.38 72.182 92.98 72.694 92.7C73.206 92.42 73.778 92.28 74.41 92.28C75.042 92.28 75.614 92.42 76.126 92.7C76.638 92.98 77.042 93.38 77.338 93.9C77.634 94.42 77.782 95.016 77.782 95.688C77.782 96.36 77.63 96.956 77.326 97.476C77.022 97.996 76.606 98.4 76.078 98.688C75.558 98.968 74.982 99.108 74.35 99.108ZM74.35 97.92C74.702 97.92 75.03 97.836 75.334 97.668C75.646 97.5 75.898 97.248 76.09 96.912C76.282 96.576 76.378 96.168 76.378 95.688C76.378 95.208 76.286 94.804 76.102 94.476C75.918 94.14 75.674 93.888 75.37 93.72C75.066 93.552 74.738 93.468 74.386 93.468C74.034 93.468 73.706 93.552 73.402 93.72C73.106 93.888 72.87 94.14 72.694 94.476C72.518 94.804 72.43 95.208 72.43 95.688C72.43 96.4 72.61 96.952 72.97 97.344C73.338 97.728 73.798 97.92 74.35 97.92ZM78.6784 95.664C78.6784 95 78.8144 94.412 79.0864 93.9C79.3664 93.388 79.7424 92.992 80.2144 92.712C80.6944 92.424 81.2224 92.28 81.7984 92.28C82.3184 92.28 82.7704 92.384 83.1544 92.592C83.5464 92.792 83.8584 93.044 84.0904 93.348V92.388H85.4704V99H84.0904V98.016C83.8584 98.328 83.5424 98.588 83.1424 98.796C82.7424 99.004 82.2864 99.108 81.7744 99.108C81.2064 99.108 80.6864 98.964 80.2144 98.676C79.7424 98.38 79.3664 97.972 79.0864 97.452C78.8144 96.924 78.6784 96.328 78.6784 95.664ZM84.0904 95.688C84.0904 95.232 83.9944 94.836 83.8024 94.5C83.6184 94.164 83.3744 93.908 83.0704 93.732C82.7664 93.556 82.4384 93.468 82.0864 93.468C81.7344 93.468 81.4064 93.556 81.1024 93.732C80.7984 93.9 80.5504 94.152 80.3584 94.488C80.1744 94.816 80.0824 95.208 80.0824 95.664C80.0824 96.12 80.1744 96.52 80.3584 96.864C80.5504 97.208 80.7984 97.472 81.1024 97.656C81.4144 97.832 81.7424 97.92 82.0864 97.92C82.4384 97.92 82.7664 97.832 83.0704 97.656C83.3744 97.48 83.6184 97.224 83.8024 96.888C83.9944 96.544 84.0904 96.144 84.0904 95.688ZM86.8112 95.664C86.8112 95 86.9472 94.412 87.2192 93.9C87.4992 93.388 87.8752 92.992 88.3472 92.712C88.8272 92.424 89.3592 92.28 89.9432 92.28C90.3752 92.28 90.7992 92.376 91.2152 92.568C91.6392 92.752 91.9752 93 92.2232 93.312V90.12H93.6032V99H92.2232V98.004C91.9992 98.324 91.6872 98.588 91.2872 98.796C90.8952 99.004 90.4432 99.108 89.9312 99.108C89.3552 99.108 88.8272 98.964 88.3472 98.676C87.8752 98.38 87.4992 97.972 87.2192 97.452C86.9472 96.924 86.8112 96.328 86.8112 95.664ZM92.2232 95.688C92.2232 95.232 92.1272 94.836 91.9352 94.5C91.7512 94.164 91.5072 93.908 91.2032 93.732C90.8992 93.556 90.5712 93.468 90.2192 93.468C89.8672 93.468 89.5392 93.556 89.2352 93.732C88.9312 93.9 88.6832 94.152 88.4912 94.488C88.3072 94.816 88.2152 95.208 88.2152 95.664C88.2152 96.12 88.3072 96.52 88.4912 96.864C88.6832 97.208 88.9312 97.472 89.2352 97.656C89.5472 97.832 89.8752 97.92 90.2192 97.92C90.5712 97.92 90.8992 97.832 91.2032 97.656C91.5072 97.48 91.7512 97.224 91.9352 96.888C92.1272 96.544 92.2232 96.144 92.2232 95.688Z" fill="#87888C"/>
<path d="M229.232 301L227.312 297.664H226.268V301H224.9V292.66H227.78C228.42 292.66 228.96 292.772 229.4 292.996C229.848 293.22 230.18 293.52 230.396 293.896C230.62 294.272 230.732 294.692 230.732 295.156C230.732 295.7 230.572 296.196 230.252 296.644C229.94 297.084 229.456 297.384 228.8 297.544L230.864 301H229.232ZM226.268 296.572H227.78C228.292 296.572 228.676 296.444 228.932 296.188C229.196 295.932 229.328 295.588 229.328 295.156C229.328 294.724 229.2 294.388 228.944 294.148C228.688 293.9 228.3 293.776 227.78 293.776H226.268V296.572ZM235.35 301.108C234.726 301.108 234.162 300.968 233.658 300.688C233.154 300.4 232.758 300 232.47 299.488C232.182 298.968 232.038 298.368 232.038 297.688C232.038 297.016 232.186 296.42 232.482 295.9C232.778 295.38 233.182 294.98 233.694 294.7C234.206 294.42 234.778 294.28 235.41 294.28C236.042 294.28 236.614 294.42 237.126 294.7C237.638 294.98 238.042 295.38 238.338 295.9C238.634 296.42 238.782 297.016 238.782 297.688C238.782 298.36 238.63 298.956 238.326 299.476C238.022 299.996 237.606 300.4 237.078 300.688C236.558 300.968 235.982 301.108 235.35 301.108ZM235.35 299.92C235.702 299.92 236.03 299.836 236.334 299.668C236.646 299.5 236.898 299.248 237.09 298.912C237.282 298.576 237.378 298.168 237.378 297.688C237.378 297.208 237.286 296.804 237.102 296.476C236.918 296.14 236.674 295.888 236.37 295.72C236.066 295.552 235.738 295.468 235.386 295.468C235.034 295.468 234.706 295.552 234.402 295.72C234.106 295.888 233.87 296.14 233.694 296.476C233.518 296.804 233.43 297.208 233.43 297.688C233.43 298.4 233.61 298.952 233.97 299.344C234.338 299.728 234.798 299.92 235.35 299.92ZM239.678 297.664C239.678 297 239.814 296.412 240.086 295.9C240.366 295.388 240.742 294.992 241.214 294.712C241.694 294.424 242.222 294.28 242.798 294.28C243.318 294.28 243.77 294.384 244.154 294.592C244.546 294.792 244.858 295.044 245.09 295.348V294.388H246.47V301H245.09V300.016C244.858 300.328 244.542 300.588 244.142 300.796C243.742 301.004 243.286 301.108 242.774 301.108C242.206 301.108 241.686 300.964 241.214 300.676C240.742 300.38 240.366 299.972 240.086 299.452C239.814 298.924 239.678 298.328 239.678 297.664ZM245.09 297.688C245.09 297.232 244.994 296.836 244.802 296.5C244.618 296.164 244.374 295.908 244.07 295.732C243.766 295.556 243.438 295.468 243.086 295.468C242.734 295.468 242.406 295.556 242.102 295.732C241.798 295.9 241.55 296.152 241.358 296.488C241.174 296.816 241.082 297.208 241.082 297.664C241.082 298.12 241.174 298.52 241.358 298.864C241.55 299.208 241.798 299.472 242.102 299.656C242.414 299.832 242.742 299.92 243.086 299.92C243.438 299.92 243.766 299.832 244.07 299.656C244.374 299.48 244.618 299.224 244.802 298.888C244.994 298.544 245.09 298.144 245.09 297.688ZM247.811 297.664C247.811 297 247.947 296.412 248.219 295.9C248.499 295.388 248.875 294.992 249.347 294.712C249.827 294.424 250.359 294.28 250.943 294.28C251.375 294.28 251.799 294.376 252.215 294.568C252.639 294.752 252.975 295 253.223 295.312V292.12H254.603V301H253.223V300.004C252.999 300.324 252.687 300.588 252.287 300.796C251.895 301.004 251.443 301.108 250.931 301.108C250.355 301.108 249.827 300.964 249.347 300.676C248.875 300.38 248.499 299.972 248.219 299.452C247.947 298.924 247.811 298.328 247.811 297.664ZM253.223 297.688C253.223 297.232 253.127 296.836 252.935 296.5C252.751 296.164 252.507 295.908 252.203 295.732C251.899 295.556 251.571 295.468 251.219 295.468C250.867 295.468 250.539 295.556 250.235 295.732C249.931 295.9 249.683 296.152 249.491 296.488C249.307 296.816 249.215 297.208 249.215 297.664C249.215 298.12 249.307 298.52 249.491 298.864C249.683 299.208 249.931 299.472 250.235 299.656C250.547 299.832 250.875 299.92 251.219 299.92C251.571 299.92 251.899 299.832 252.203 299.656C252.507 299.48 252.751 299.224 252.935 298.888C253.127 298.544 253.223 298.144 253.223 297.688Z" fill="#87888C"/>
<path d="M170 239L158 236.5L174 150.5C175.5 143 176 132 196 125L309.5 87L358 90.5V102L306 99.5L190.5 140.5L170 239Z" fill="#6709eb"/>
<path d="M187.601 154.201L177.337 203.568C176.595 207.137 173.128 209.452 169.547 208.768C165.929 208.078 163.554 204.588 164.237 200.969L173.598 151.422C174.359 147.393 178.351 144.831 182.331 145.819C186.055 146.743 188.382 150.445 187.601 154.201Z" fill="#FF2257"/>
<path d="M304.07 99.6923L248.614 120L242 109.338L308.14 87L358 90.5538V103.246L304.07 99.6923Z" fill="#00FFA4"/>
</svg>
